<svg xmlns="http://www.w3.org/2000/svg" version="1.1" xmlns:xlink="http://www.w3.org/1999/xlink" width="100%" height="100%" viewBox="0 0 2000 2000" xml:space="preserve" xmlns:serif="http://www.serif.com/" style="fill-rule:evenodd;clip-rule:evenodd;stroke-linejoin:round;stroke-miterlimit:2;"><metadata><rdf:RDF xmlns:rdf="http://www.w3.org/1999/02/22-rdf-syntax-ns#" xmlns:dc="http://purl.org/dc/elements/1.1/"><rdf:Description><dc:creator>RealFaviconGenerator</dc:creator><dc:source>https://realfavicongenerator.net</dc:source></rdf:Description></rdf:RDF></metadata><g id="Icon"><path d="M411.618,1786.307l-197.925,0l786.307,-1572.614l786.307,1572.614l-197.925,0l-588.382,-1176.763l-588.382,1176.763Z" style="fill:#2e3428;"></path><path d="M1001.167,1018.285c-37.354,-9.321 -65.062,-43.124 -65.062,-83.347c0,-47.407 38.489,-85.896 85.896,-85.896c47.407,0 85.896,38.489 85.896,85.896c0,40.224 -27.708,74.027 -65.062,83.347l0,265.264l-41.667,48.197l-0,-313.461Zm20.833,-39.118c24.411,0 44.229,-19.818 44.229,-44.229c0,-24.411 -19.818,-44.229 -44.229,-44.229c-24.411,0 -44.229,19.818 -44.229,44.229c0,24.411 19.818,44.229 44.229,44.229Zm109.814,304.669l-105.591,129.871l0,372.6l-41.667,-0l0,-380c-0,-4.787 1.649,-9.428 4.669,-13.143l109.112,-134.202c-12.187,-14.829 -19.507,-33.807 -19.507,-54.481c0,-47.407 38.489,-85.896 85.896,-85.896c47.407,0 85.896,38.489 85.896,85.896c0,47.407 -38.489,85.896 -85.896,85.896c-11.656,0 -22.773,-2.327 -32.911,-6.541Zm12.54,-40.093c6.098,3.173 13.027,4.967 20.371,4.967c24.411,0 44.229,-19.818 44.229,-44.229c0,-24.411 -19.818,-44.229 -44.229,-44.229c-24.411,0 -44.229,19.818 -44.229,44.229c0,12.451 5.156,23.707 13.447,31.748c2.391,0.77 4.681,1.987 6.746,3.666c1.413,1.149 2.636,2.445 3.665,3.848Zm57.681,234.012l-94.817,93.727l0,214.825l-41.667,-0l-0,-223.525c-0,-5.567 2.228,-10.903 6.187,-14.816l102.255,-101.079c-6.497,-12.088 -10.185,-25.906 -10.185,-40.579c0,-47.407 38.489,-85.896 85.896,-85.896c47.407,0 85.896,38.489 85.896,85.896c0,47.407 -38.489,85.896 -85.896,85.896c-17.63,0 -34.027,-5.323 -47.669,-14.448Zm18.736,-38.005c7.758,6.719 17.874,10.786 28.933,10.786c24.411,0 44.229,-19.818 44.229,-44.229c0,-24.411 -19.818,-44.229 -44.229,-44.229c-24.411,0 -44.229,19.818 -44.229,44.229c0,9.114 2.763,17.588 7.496,24.629c1.334,0.837 2.594,1.84 3.748,3.009c1.72,1.74 3.071,3.707 4.052,5.805Zm-383.602,-216.983c-37.354,-9.321 -65.062,-43.124 -65.062,-83.347c0,-47.407 38.489,-85.896 85.896,-85.896c47.407,0 85.896,38.489 85.896,85.896c0,40.224 -27.708,74.027 -65.062,83.347l-0,37.218l106.8,91.879l-27.174,31.587l-114.046,-98.113c-4.6,-3.958 -7.247,-9.725 -7.247,-15.793l0,-46.777Zm20.833,-39.118c24.411,0 44.229,-19.818 44.229,-44.229c0,-24.411 -19.818,-44.229 -44.229,-44.229c-24.411,0 -44.229,19.818 -44.229,44.229c0,24.411 19.818,44.229 44.229,44.229Zm-80.234,313.815c-14.067,10.061 -31.292,15.985 -49.89,15.985c-47.407,0 -85.896,-38.489 -85.896,-85.896c0,-47.407 38.489,-85.896 85.896,-85.896c47.407,0 85.896,38.489 85.896,85.896c0,13.722 -3.224,26.696 -8.956,38.206l136.313,111.546c4.835,3.957 7.64,9.875 7.64,16.123l0,192.879l-41.667,-0l0,-183.008l-129.335,-105.836Zm-49.89,-114.14c-24.411,0 -44.229,19.818 -44.229,44.229c0,24.411 19.818,44.229 44.229,44.229c24.411,0 44.229,-19.818 44.229,-44.229c0,-24.411 -19.818,-44.229 -44.229,-44.229Z" style="fill:#2e3428;"></path></g></svg>