<?xml version="1.0" encoding="UTF-8" standalone="no"?><!DOCTYPE svg PUBLIC "-//W3C//DTD SVG 1.1//EN" "http://www.w3.org/Graphics/SVG/1.1/DTD/svg11.dtd"><svg width="100%" height="100%" viewBox="0 0 2000 2000" version="1.1" xmlns="http://www.w3.org/2000/svg" xmlns:xlink="http://www.w3.org/1999/xlink" xml:space="preserve" xmlns:serif="http://www.serif.com/" style="fill-rule:evenodd;clip-rule:evenodd;stroke-linejoin:round;stroke-miterlimit:2;"><g id="Icon"><path d="M489.279,1419.198l-171.801,0l682.522,-1365.045l682.522,1365.045l-171.801,0l-510.721,-1021.443l-510.721,1021.443Z" style="fill:#525252;"/><path d="M1001.013,752.547c-32.424,-8.09 -56.475,-37.432 -56.475,-72.346c0,-41.15 33.408,-74.558 74.558,-74.558c41.15,0 74.558,33.408 74.558,74.558c0,34.914 -24.051,64.256 -56.475,72.346l0,230.252l-36.167,41.835l0,-272.087Zm18.084,-33.955c21.189,0 38.391,-17.202 38.391,-38.391c0,-21.189 -17.202,-38.391 -38.391,-38.391c-21.189,0 -38.391,17.202 -38.391,38.391c0,21.189 17.202,38.391 38.391,38.391Zm95.32,264.456l-91.654,112.73l0,323.42l-36.167,-0l0,-329.844c-0,-4.155 1.431,-8.184 4.052,-11.408l94.71,-116.488c-10.578,-12.872 -16.932,-29.345 -16.932,-47.29c0,-41.15 33.408,-74.558 74.558,-74.558c41.15,0 74.558,33.408 74.558,74.558c0,41.15 -33.408,74.558 -74.558,74.558c-10.118,0 -19.767,-2.02 -28.567,-5.677Zm10.885,-34.801c5.293,2.754 11.307,4.312 17.682,4.312c21.189,0 38.391,-17.202 38.391,-38.391c0,-21.189 -17.202,-38.391 -38.391,-38.391c-21.189,0 -38.391,17.202 -38.391,38.391c0,10.808 4.475,20.578 11.673,27.558c2.075,0.668 4.063,1.725 5.855,3.182c1.226,0.997 2.288,2.122 3.181,3.34Zm50.068,203.124l-82.302,81.356l0,186.47l-36.167,-0l-0,-194.022c-0,-4.832 1.934,-9.464 5.371,-12.861l88.758,-87.738c-5.64,-10.492 -8.84,-22.487 -8.84,-35.223c0,-41.15 33.408,-74.558 74.558,-74.558c41.15,0 74.558,33.408 74.558,74.558c0,41.15 -33.408,74.558 -74.558,74.558c-15.303,0 -29.535,-4.62 -41.377,-12.541Zm16.263,-32.989c6.734,5.832 15.515,9.363 25.114,9.363c21.189,0 38.391,-17.202 38.391,-38.391c0,-21.189 -17.202,-38.391 -38.391,-38.391c-21.189,0 -38.391,17.202 -38.391,38.391c0,7.911 2.398,15.267 6.506,21.379c1.158,0.727 2.251,1.597 3.254,2.612c1.493,1.51 2.665,3.218 3.517,5.038Zm-332.971,-188.344c-32.424,-8.09 -56.475,-37.432 -56.475,-72.346c0,-41.15 33.408,-74.558 74.558,-74.558c41.15,0 74.558,33.408 74.558,74.558c0,34.914 -24.051,64.256 -56.475,72.346l-0,32.306l92.703,79.752l-23.587,27.417l-98.994,-85.163c-3.993,-3.435 -6.29,-8.441 -6.29,-13.709l0,-40.603Zm18.084,-33.955c21.189,0 38.391,-17.202 38.391,-38.391c0,-21.189 -17.202,-38.391 -38.391,-38.391c-21.189,0 -38.391,17.202 -38.391,38.391c0,21.189 17.202,38.391 38.391,38.391Zm-69.644,272.394c-12.211,8.733 -27.162,13.875 -43.305,13.875c-41.15,0 -74.558,-33.408 -74.558,-74.558c0,-41.15 33.408,-74.558 74.558,-74.558c41.15,0 74.558,33.408 74.558,74.558c0,11.91 -2.799,23.172 -7.774,33.163l118.321,96.823c4.197,3.435 6.631,8.572 6.631,13.995l0,167.421l-36.167,-0l0,-158.853l-112.264,-91.867Zm-43.305,-99.075c-21.189,0 -38.391,17.202 -38.391,38.391c0,21.189 17.202,38.391 38.391,38.391c21.189,0 38.391,-17.202 38.391,-38.391c0,-21.189 -17.202,-38.391 -38.391,-38.391Z" style="fill:#525252;"/></g><g transform="matrix(455.634116,0,0,455.634116,166.118375,1766.655086)"><path d="M-0.005,-0l0.315,-0.7l0.128,0l0.316,0.7l-0.136,-0l-0.27,-0.631l0.052,0l-0.27,0.631l-0.134,-0Zm0.145,-0.162l0.035,-0.102l0.378,0l0.036,0.102l-0.448,0Z" style="fill:#525252;fill-rule:nonzero;"/></g><g transform="matrix(455.634116,0,0,455.634116,507.388328,1766.655086)"><path d="M0.094,-0l0,-0.7l0.286,0c0.093,0 0.167,0.022 0.22,0.066c0.053,0.044 0.08,0.105 0.08,0.183c0,0.051 -0.012,0.095 -0.036,0.132c-0.024,0.037 -0.058,0.065 -0.103,0.085c-0.044,0.02 -0.098,0.03 -0.159,0.03l-0.216,0l0.058,-0.059l0,0.263l-0.13,-0Zm0.457,-0l-0.177,-0.254l0.139,0l0.178,0.254l-0.141,-0Zm-0.328,-0.249l-0.058,-0.063l0.21,0c0.057,0 0.1,-0.012 0.129,-0.037c0.029,-0.025 0.044,-0.059 0.044,-0.103c0,-0.044 -0.015,-0.079 -0.044,-0.103c-0.029,-0.024 -0.072,-0.036 -0.129,-0.036l-0.21,0l0.058,-0.063l0,0.405Z" style="fill:#525252;fill-rule:nonzero;"/></g><g transform="matrix(455.634116,0,0,455.634116,840.456867,1766.655086)"><path d="M0.094,-0l0,-0.7l0.511,0l0,0.109l-0.381,0l0,0.482l0.395,0l0,0.109l-0.525,-0Zm0.119,-0.302l0,-0.106l0.349,0l0,0.106l-0.349,0Z" style="fill:#525252;fill-rule:nonzero;"/></g><g transform="matrix(455.634116,0,0,455.634116,1145.731724,1766.655086)"><path d="M0.236,-0l0,-0.59l-0.232,0l-0,-0.11l0.594,0l0,0.11l-0.232,0l0,0.59l-0.13,-0Z" style="fill:#525252;fill-rule:nonzero;"/></g><g transform="matrix(455.634116,0,0,455.634116,1420.023462,1766.655086)"><rect x="0.094" y="-0.7" width="0.13" height="0.7" style="fill:#525252;fill-rule:nonzero;"/></g><g transform="matrix(455.634116,0,0,455.634116,1565.370745,1766.655086)"><path d="M0.311,0.01c-0.055,0 -0.107,-0.008 -0.157,-0.023c-0.05,-0.016 -0.09,-0.036 -0.119,-0.061l0.046,-0.101c0.028,0.022 0.063,0.041 0.104,0.055c0.041,0.015 0.084,0.022 0.127,0.022c0.037,0 0.066,-0.004 0.089,-0.012c0.023,-0.008 0.039,-0.019 0.05,-0.033c0.011,-0.014 0.016,-0.029 0.016,-0.047c0,-0.021 -0.008,-0.038 -0.023,-0.051c-0.015,-0.013 -0.035,-0.023 -0.059,-0.031c-0.024,-0.008 -0.051,-0.015 -0.081,-0.022c-0.03,-0.007 -0.059,-0.014 -0.089,-0.023c-0.03,-0.009 -0.057,-0.021 -0.081,-0.035c-0.024,-0.014 -0.044,-0.034 -0.059,-0.057c-0.015,-0.024 -0.023,-0.054 -0.023,-0.092c0,-0.038 0.01,-0.073 0.03,-0.105c0.02,-0.032 0.051,-0.057 0.093,-0.076c0.042,-0.019 0.094,-0.029 0.158,-0.029c0.042,0 0.084,0.005 0.125,0.016c0.041,0.011 0.077,0.026 0.108,0.046l-0.041,0.101c-0.031,-0.019 -0.063,-0.033 -0.097,-0.042c-0.033,-0.009 -0.065,-0.013 -0.097,-0.013c-0.035,0 -0.064,0.004 -0.087,0.013c-0.023,0.009 -0.039,0.02 -0.049,0.034c-0.01,0.014 -0.015,0.03 -0.015,0.048c0,0.021 0.008,0.038 0.023,0.051c0.015,0.013 0.035,0.023 0.059,0.031c0.024,0.008 0.052,0.015 0.081,0.022c0.03,0.007 0.059,0.015 0.089,0.023c0.03,0.009 0.057,0.02 0.081,0.034c0.024,0.014 0.044,0.033 0.059,0.057c0.015,0.024 0.023,0.054 0.023,0.091c0,0.037 -0.01,0.072 -0.031,0.104c-0.021,0.032 -0.052,0.057 -0.094,0.076c-0.042,0.019 -0.095,0.029 -0.159,0.029Z" style="fill:#525252;fill-rule:nonzero;"/></g><g transform="matrix(455.634116,0,0,455.634116,1851.964604,1766.655086)"></g><g transform="matrix(133.102483,0,0,133.102483,164.972215,1920.025401)"><path d="M0.266,-0l0,-0.277l0.03,0.079l-0.304,-0.503l0.138,0l0.245,0.405l-0.078,0l0.246,-0.405l0.128,0l-0.304,0.503l0.029,-0.079l0,0.277l-0.13,-0Z" style="fill:#525252;fill-rule:nonzero;"/></g><g transform="matrix(133.102483,0,0,133.102483,244.966807,1920.025401)"><path d="M0.322,0.007c-0.055,0 -0.104,-0.012 -0.146,-0.035c-0.043,-0.023 -0.077,-0.056 -0.101,-0.097c-0.025,-0.041 -0.037,-0.088 -0.037,-0.141c0,-0.053 0.012,-0.101 0.037,-0.142c0.025,-0.041 0.059,-0.073 0.101,-0.097c0.043,-0.023 0.091,-0.035 0.146,-0.035c0.055,0 0.104,0.012 0.147,0.035c0.043,0.023 0.077,0.055 0.101,0.096c0.024,0.041 0.037,0.088 0.037,0.142c0,0.053 -0.012,0.1 -0.037,0.141c-0.024,0.041 -0.058,0.074 -0.101,0.097c-0.043,0.023 -0.092,0.035 -0.147,0.035Zm0,-0.106c0.031,0 0.058,-0.007 0.082,-0.02c0.024,-0.014 0.043,-0.033 0.056,-0.058c0.014,-0.025 0.021,-0.055 0.021,-0.089c0,-0.034 -0.007,-0.064 -0.021,-0.089c-0.014,-0.025 -0.033,-0.044 -0.056,-0.058c-0.024,-0.014 -0.051,-0.02 -0.081,-0.02c-0.03,0 -0.057,0.007 -0.081,0.02c-0.024,0.014 -0.043,0.033 -0.057,0.058c-0.014,0.025 -0.021,0.055 -0.021,0.089c0,0.034 0.007,0.063 0.021,0.089c0.014,0.025 0.033,0.045 0.057,0.058c0.024,0.014 0.051,0.02 0.081,0.02Z" style="fill:#525252;fill-rule:nonzero;"/></g><g transform="matrix(133.102483,0,0,133.102483,330.817908,1920.025401)"><path d="M0.308,0.007c-0.046,0 -0.086,-0.008 -0.121,-0.025c-0.035,-0.017 -0.062,-0.043 -0.081,-0.078c-0.019,-0.035 -0.029,-0.079 -0.029,-0.133l0,-0.305l0.125,0l0,0.288c0,0.048 0.011,0.084 0.033,0.107c0.022,0.023 0.053,0.035 0.093,0.035c0.029,0 0.054,-0.006 0.076,-0.018c0.022,-0.012 0.039,-0.03 0.051,-0.054c0.012,-0.024 0.018,-0.053 0.018,-0.089l0,-0.27l0.125,0l0,0.534l-0.119,-0l0,-0.144l0.021,0.044c-0.018,0.035 -0.045,0.061 -0.079,0.079c-0.034,0.018 -0.072,0.027 -0.114,0.027Z" style="fill:#525252;fill-rule:nonzero;"/></g><g transform="matrix(133.102483,0,0,133.102483,421.460699,1920.025401)"><path d="M0.082,-0l0,-0.534l0.119,0l0,0.147l-0.014,-0.043c0.016,-0.036 0.041,-0.064 0.075,-0.083c0.035,-0.019 0.077,-0.028 0.128,-0.028l0,0.119c-0.005,-0.001 -0.01,-0.001 -0.015,-0.002c-0.004,-0 -0.009,-0.001 -0.013,-0.001c-0.047,0 -0.085,0.014 -0.113,0.041c-0.028,0.028 -0.042,0.069 -0.042,0.124l0,0.259l-0.125,-0Z" style="fill:#525252;fill-rule:nonzero;"/></g><g transform="matrix(133.102483,0,0,133.102483,477.363742,1920.025401)"></g><g transform="matrix(133.102483,0,0,133.102483,514.100027,1920.025401)"><path d="M-0.005,-0l0.315,-0.7l0.128,0l0.316,0.7l-0.136,-0l-0.27,-0.631l0.052,0l-0.27,0.631l-0.134,-0Zm0.145,-0.162l0.035,-0.102l0.378,0l0.036,0.102l-0.448,0Z" style="fill:#525252;fill-rule:nonzero;"/></g><g transform="matrix(133.102483,0,0,133.102483,613.793787,1920.025401)"><rect x="0.094" y="-0.7" width="0.13" height="0.7" style="fill:#525252;fill-rule:nonzero;"/></g><g transform="matrix(133.102483,0,0,133.102483,656.253479,1920.025401)"></g><g transform="matrix(133.102483,0,0,133.102483,692.989764,1920.025401)"><path d="M0.418,0.01c-0.054,0 -0.103,-0.009 -0.149,-0.027c-0.046,-0.018 -0.085,-0.043 -0.119,-0.075c-0.034,-0.032 -0.06,-0.07 -0.078,-0.114c-0.019,-0.044 -0.028,-0.092 -0.028,-0.144c-0,-0.052 0.009,-0.1 0.028,-0.144c0.019,-0.044 0.045,-0.082 0.079,-0.114c0.034,-0.032 0.074,-0.057 0.119,-0.075c0.046,-0.018 0.095,-0.026 0.149,-0.026c0.057,0 0.109,0.01 0.157,0.029c0.047,0.02 0.087,0.049 0.12,0.087l-0.084,0.08c-0.025,-0.028 -0.054,-0.048 -0.085,-0.062c-0.031,-0.014 -0.065,-0.021 -0.102,-0.021c-0.036,0 -0.07,0.006 -0.1,0.018c-0.03,0.012 -0.057,0.029 -0.079,0.051c-0.022,0.022 -0.04,0.048 -0.052,0.078c-0.012,0.03 -0.019,0.063 -0.019,0.099c0,0.036 0.006,0.069 0.019,0.099c0.012,0.03 0.03,0.056 0.052,0.078c0.022,0.022 0.049,0.039 0.079,0.051c0.03,0.012 0.064,0.018 0.1,0.018c0.037,0 0.071,-0.007 0.102,-0.021c0.031,-0.014 0.06,-0.035 0.085,-0.063l0.084,0.08c-0.032,0.038 -0.072,0.067 -0.12,0.087c-0.047,0.02 -0.1,0.03 -0.158,0.03Z" style="fill:#525252;fill-rule:nonzero;"/></g><g transform="matrix(133.102483,0,0,133.102483,788.557347,1920.025401)"><path d="M0.094,-0l0,-0.7l0.286,0c0.093,0 0.167,0.022 0.22,0.066c0.053,0.044 0.08,0.105 0.08,0.183c0,0.051 -0.012,0.095 -0.036,0.132c-0.024,0.037 -0.058,0.065 -0.103,0.085c-0.044,0.02 -0.098,0.03 -0.159,0.03l-0.216,0l0.058,-0.059l0,0.263l-0.13,-0Zm0.457,-0l-0.177,-0.254l0.139,0l0.178,0.254l-0.141,-0Zm-0.328,-0.249l-0.058,-0.063l0.21,0c0.057,0 0.1,-0.012 0.129,-0.037c0.029,-0.025 0.044,-0.059 0.044,-0.103c0,-0.044 -0.015,-0.079 -0.044,-0.103c-0.029,-0.024 -0.072,-0.036 -0.129,-0.036l-0.21,0l0.058,-0.063l0,0.405Z" style="fill:#525252;fill-rule:nonzero;"/></g><g transform="matrix(133.102483,0,0,133.102483,885.855262,1920.025401)"><path d="M0.094,-0l0,-0.7l0.107,0l0.306,0.511l-0.057,0l0.302,-0.511l0.107,0l0.001,0.7l-0.124,-0l-0.001,-0.507l0.026,0l-0.256,0.427l-0.059,0l-0.259,-0.427l0.03,0l0,0.507l-0.124,-0Z" style="fill:#525252;fill-rule:nonzero;"/></g><g transform="matrix(133.102483,0,0,133.102483,1012.968133,1920.025401)"></g><g transform="matrix(133.102483,0,0,133.102483,1049.704419,1920.025401)"><path d="M0.418,0.01c-0.054,0 -0.103,-0.009 -0.149,-0.027c-0.046,-0.018 -0.085,-0.043 -0.119,-0.075c-0.034,-0.032 -0.06,-0.07 -0.078,-0.114c-0.019,-0.044 -0.028,-0.092 -0.028,-0.144c-0,-0.052 0.009,-0.1 0.028,-0.144c0.019,-0.044 0.045,-0.082 0.079,-0.114c0.034,-0.032 0.074,-0.057 0.119,-0.075c0.046,-0.018 0.095,-0.026 0.149,-0.026c0.057,0 0.109,0.01 0.157,0.029c0.047,0.02 0.087,0.049 0.12,0.087l-0.084,0.08c-0.025,-0.028 -0.054,-0.048 -0.085,-0.062c-0.031,-0.014 -0.065,-0.021 -0.102,-0.021c-0.036,0 -0.07,0.006 -0.1,0.018c-0.03,0.012 -0.057,0.029 -0.079,0.051c-0.022,0.022 -0.04,0.048 -0.052,0.078c-0.012,0.03 -0.019,0.063 -0.019,0.099c0,0.036 0.006,0.069 0.019,0.099c0.012,0.03 0.03,0.056 0.052,0.078c0.022,0.022 0.049,0.039 0.079,0.051c0.03,0.012 0.064,0.018 0.1,0.018c0.037,0 0.071,-0.007 0.102,-0.021c0.031,-0.014 0.06,-0.035 0.085,-0.063l0.084,0.08c-0.032,0.038 -0.072,0.067 -0.12,0.087c-0.047,0.02 -0.1,0.03 -0.158,0.03Z" style="fill:#525252;fill-rule:nonzero;"/></g><g transform="matrix(133.102483,0,0,133.102483,1142.609952,1920.025401)"><path d="M0.322,0.007c-0.055,0 -0.104,-0.012 -0.146,-0.035c-0.043,-0.023 -0.077,-0.056 -0.101,-0.097c-0.025,-0.041 -0.037,-0.088 -0.037,-0.141c0,-0.053 0.012,-0.101 0.037,-0.142c0.025,-0.041 0.059,-0.073 0.101,-0.097c0.043,-0.023 0.091,-0.035 0.146,-0.035c0.055,0 0.104,0.012 0.147,0.035c0.043,0.023 0.077,0.055 0.101,0.096c0.024,0.041 0.037,0.088 0.037,0.142c0,0.053 -0.012,0.1 -0.037,0.141c-0.024,0.041 -0.058,0.074 -0.101,0.097c-0.043,0.023 -0.092,0.035 -0.147,0.035Zm0,-0.106c0.031,0 0.058,-0.007 0.082,-0.02c0.024,-0.014 0.043,-0.033 0.056,-0.058c0.014,-0.025 0.021,-0.055 0.021,-0.089c0,-0.034 -0.007,-0.064 -0.021,-0.089c-0.014,-0.025 -0.033,-0.044 -0.056,-0.058c-0.024,-0.014 -0.051,-0.02 -0.081,-0.02c-0.03,0 -0.057,0.007 -0.081,0.02c-0.024,0.014 -0.043,0.033 -0.057,0.058c-0.014,0.025 -0.021,0.055 -0.021,0.089c0,0.034 0.007,0.063 0.021,0.089c0.014,0.025 0.033,0.045 0.057,0.058c0.024,0.014 0.051,0.02 0.081,0.02Z" style="fill:#525252;fill-rule:nonzero;"/></g><g transform="matrix(133.102483,0,0,133.102483,1228.461053,1920.025401)"><path d="M0.082,-0l0,-0.534l0.119,0l0,0.142l-0.021,-0.042c0.018,-0.034 0.044,-0.061 0.078,-0.079c0.034,-0.018 0.074,-0.027 0.118,-0.027c0.05,0 0.093,0.012 0.13,0.037c0.037,0.025 0.062,0.062 0.074,0.113l-0.049,-0.017c0.017,-0.04 0.046,-0.072 0.086,-0.096c0.04,-0.024 0.086,-0.036 0.139,-0.036c0.043,0 0.081,0.008 0.114,0.025c0.033,0.017 0.059,0.042 0.078,0.077c0.019,0.035 0.028,0.079 0.028,0.133l0,0.306l-0.125,-0l0,-0.29c0,-0.047 -0.01,-0.083 -0.031,-0.106c-0.021,-0.023 -0.051,-0.035 -0.089,-0.035c-0.027,0 -0.051,0.006 -0.073,0.018c-0.021,0.012 -0.037,0.029 -0.049,0.053c-0.012,0.023 -0.017,0.053 -0.017,0.089l0,0.271l-0.125,-0l0,-0.29c0,-0.047 -0.01,-0.083 -0.031,-0.106c-0.021,-0.023 -0.05,-0.035 -0.089,-0.035c-0.027,0 -0.051,0.006 -0.073,0.018c-0.021,0.012 -0.037,0.029 -0.049,0.053c-0.012,0.023 -0.017,0.053 -0.017,0.089l0,0.271l-0.125,-0Z" style="fill:#525252;fill-rule:nonzero;"/></g><g transform="matrix(133.102483,0,0,133.102483,1368.617968,1920.025401)"><path d="M0.378,0.007c-0.044,0 -0.084,-0.01 -0.119,-0.03c-0.036,-0.02 -0.064,-0.05 -0.085,-0.09c-0.021,-0.041 -0.031,-0.092 -0.031,-0.153c0,-0.063 0.01,-0.114 0.03,-0.154c0.02,-0.04 0.048,-0.07 0.083,-0.09c0.036,-0.02 0.076,-0.03 0.121,-0.03c0.052,0 0.098,0.011 0.139,0.034c0.041,0.023 0.073,0.055 0.096,0.095c0.023,0.041 0.035,0.089 0.035,0.144c0,0.055 -0.012,0.103 -0.035,0.144c-0.023,0.041 -0.055,0.073 -0.096,0.095c-0.041,0.023 -0.087,0.034 -0.139,0.034Zm-0.296,0.187l0,-0.728l0.119,0l0,0.126l-0.004,0.142l0.01,0.142l0,0.318l-0.125,0Zm0.281,-0.294c0.03,-0 0.057,-0.007 0.081,-0.02c0.024,-0.014 0.043,-0.033 0.057,-0.058c0.014,-0.025 0.021,-0.055 0.021,-0.089c0,-0.034 -0.007,-0.064 -0.021,-0.089c-0.014,-0.025 -0.033,-0.044 -0.057,-0.058c-0.024,-0.014 -0.051,-0.02 -0.081,-0.02c-0.03,0 -0.057,0.007 -0.081,0.02c-0.024,0.014 -0.043,0.033 -0.057,0.058c-0.014,0.025 -0.021,0.055 -0.021,0.089c-0,0.034 0.007,0.063 0.021,0.089c0.014,0.025 0.033,0.045 0.057,0.058c0.024,0.014 0.051,0.02 0.081,0.02Z" style="fill:#525252;fill-rule:nonzero;"/></g><g transform="matrix(133.102483,0,0,133.102483,1458.994554,1920.025401)"><path d="M0.411,-0l0,-0.108l-0.006,-0.023l0,-0.189c0,-0.037 -0.011,-0.065 -0.033,-0.085c-0.022,-0.02 -0.056,-0.031 -0.1,-0.031c-0.03,0 -0.059,0.005 -0.088,0.014c-0.029,0.009 -0.053,0.022 -0.074,0.038l-0.049,-0.091c0.029,-0.022 0.063,-0.038 0.102,-0.049c0.04,-0.011 0.081,-0.017 0.124,-0.017c0.077,0 0.137,0.019 0.179,0.056c0.042,0.037 0.064,0.094 0.064,0.172l0,0.313l-0.119,-0Zm-0.167,0.007c-0.041,0 -0.076,-0.007 -0.106,-0.02c-0.03,-0.014 -0.053,-0.032 -0.069,-0.057c-0.016,-0.024 -0.024,-0.052 -0.024,-0.082c-0,-0.03 0.007,-0.057 0.022,-0.081c0.015,-0.024 0.038,-0.043 0.071,-0.057c0.033,-0.014 0.076,-0.021 0.13,-0.021l0.155,0l0,0.083l-0.146,0c-0.043,-0 -0.071,0.007 -0.086,0.021c-0.015,0.014 -0.022,0.031 -0.022,0.051c0,0.023 0.009,0.04 0.027,0.054c0.018,0.013 0.043,0.02 0.075,0.02c0.031,0 0.059,-0.007 0.083,-0.021c0.024,-0.014 0.042,-0.034 0.052,-0.062l0.021,0.075c-0.012,0.031 -0.034,0.056 -0.065,0.073c-0.031,0.017 -0.07,0.026 -0.117,0.026Z" style="fill:#525252;fill-rule:nonzero;"/></g><g transform="matrix(133.102483,0,0,133.102483,1539.787761,1920.025401)"><path d="M0.082,-0l0,-0.534l0.119,0l0,0.144l-0.021,-0.044c0.018,-0.034 0.046,-0.061 0.081,-0.079c0.036,-0.018 0.077,-0.028 0.123,-0.028c0.043,0 0.081,0.008 0.115,0.025c0.033,0.017 0.06,0.042 0.079,0.077c0.019,0.035 0.029,0.079 0.029,0.133l0,0.306l-0.125,-0l0,-0.29c0,-0.047 -0.011,-0.083 -0.033,-0.106c-0.022,-0.023 -0.053,-0.035 -0.094,-0.035c-0.029,0 -0.055,0.006 -0.078,0.018c-0.023,0.012 -0.04,0.03 -0.052,0.053c-0.012,0.024 -0.018,0.053 -0.018,0.089l0,0.27l-0.125,-0Z" style="fill:#525252;fill-rule:nonzero;"/></g><g transform="matrix(133.102483,0,0,133.102483,1630.962961,1920.025401)"><path d="M0.082,-0l0,-0.534l0.125,0l0,0.534l-0.125,-0Zm0.063,-0.622c-0.023,0 -0.043,-0.007 -0.058,-0.022c-0.015,-0.014 -0.023,-0.032 -0.023,-0.053c0,-0.021 0.008,-0.039 0.023,-0.053c0.015,-0.014 0.034,-0.022 0.058,-0.022c0.023,0 0.043,0.007 0.058,0.021c0.015,0.014 0.023,0.031 0.023,0.052c0,0.022 -0.007,0.04 -0.022,0.055c-0.015,0.015 -0.034,0.022 -0.058,0.022Z" style="fill:#525252;fill-rule:nonzero;"/></g><g transform="matrix(133.102483,0,0,133.102483,1669.429579,1920.025401)"><path d="M0.322,0.007c-0.055,0 -0.104,-0.012 -0.146,-0.035c-0.043,-0.023 -0.077,-0.056 -0.101,-0.097c-0.025,-0.041 -0.037,-0.088 -0.037,-0.141c0,-0.053 0.012,-0.101 0.037,-0.142c0.025,-0.041 0.059,-0.073 0.101,-0.097c0.043,-0.023 0.091,-0.035 0.146,-0.035c0.055,0 0.104,0.012 0.147,0.035c0.043,0.023 0.077,0.055 0.101,0.096c0.024,0.041 0.037,0.088 0.037,0.142c0,0.053 -0.012,0.1 -0.037,0.141c-0.024,0.041 -0.058,0.074 -0.101,0.097c-0.043,0.023 -0.092,0.035 -0.147,0.035Zm0,-0.106c0.031,0 0.058,-0.007 0.082,-0.02c0.024,-0.014 0.043,-0.033 0.056,-0.058c0.014,-0.025 0.021,-0.055 0.021,-0.089c0,-0.034 -0.007,-0.064 -0.021,-0.089c-0.014,-0.025 -0.033,-0.044 -0.056,-0.058c-0.024,-0.014 -0.051,-0.02 -0.081,-0.02c-0.03,0 -0.057,0.007 -0.081,0.02c-0.024,0.014 -0.043,0.033 -0.057,0.058c-0.014,0.025 -0.021,0.055 -0.021,0.089c0,0.034 0.007,0.063 0.021,0.089c0.014,0.025 0.033,0.045 0.057,0.058c0.024,0.014 0.051,0.02 0.081,0.02Z" style="fill:#525252;fill-rule:nonzero;"/></g><g transform="matrix(133.102483,0,0,133.102483,1755.28068,1920.025401)"><path d="M0.082,-0l0,-0.534l0.119,0l0,0.144l-0.021,-0.044c0.018,-0.034 0.046,-0.061 0.081,-0.079c0.036,-0.018 0.077,-0.028 0.123,-0.028c0.043,0 0.081,0.008 0.115,0.025c0.033,0.017 0.06,0.042 0.079,0.077c0.019,0.035 0.029,0.079 0.029,0.133l0,0.306l-0.125,-0l0,-0.29c0,-0.047 -0.011,-0.083 -0.033,-0.106c-0.022,-0.023 -0.053,-0.035 -0.094,-0.035c-0.029,0 -0.055,0.006 -0.078,0.018c-0.023,0.012 -0.04,0.03 -0.052,0.053c-0.012,0.024 -0.018,0.053 -0.018,0.089l0,0.27l-0.125,-0Z" style="fill:#525252;fill-rule:nonzero;"/></g><g transform="matrix(133.102483,0,0,133.102483,1846.455881,1920.025401)"></g></svg>